<?xml version="1.0" standalone="no"?> <!DOCTYPE svg PUBLIC "-//W3C//DTD SVG 20010904//EN" "http://www.w3.org/TR/2001/REC-SVG-20010904/DTD/svg10.dtd"> <svg version="1.0" xmlns="http://www.w3.org/2000/svg" width="2400.000000pt" height="2400.000000pt" viewBox="0 0 2400.000000 2400.000000" preserveAspectRatio="xMidYMid meet"> <g transform="translate(0.000000,2400.000000) scale(0.100000,-0.100000)" fill="#fc9721" stroke="none"> <path d="M0 23890 c0 -50 0 -50 48 -52 26 0 81 -2 122 -4 41 -1 82 -2 90 -2 8 0 232 2 497 4 361 4 489 2 505 -7 27 -15 388 -14 813 2 389 14 759 13 787 -2 29 -15 942 -13 971 3 14 7 111 8 318 3 274 -7 299 -9 315 -26 15 -17 33 -19 159 -19 99 0 145 4 153 13 21 20 198 27 647 25 1635 -8 3495 0 3512 14 17 13 82 13 96 -1 7 -7 53 -11 118 -11 86 0 108 -3 113 -15 5 -13 67 -15 481 -15 414 0 476 2 481 15 5 12 32 15 154 15 89 0 151 4 155 10 3 6 17 10 30 10 13 0 27 -4 30 -10 3 -6 52 -10 110 -10 58 0 107 4 110 10 3 6 17 10 31 10 19 0 24 -5 24 -25 0 -25 0 -25 95 -25 76 0 97 3 101 15 5 13 39 15 218 15 200 0 212 -1 224 -20 9 -15 23 -20 56 -20 30 0 48 6 61 20 18 19 31 20 463 20 366 0 447 -2 456 -14 9 -11 89 -15 419 -20 399 -6 407 -5 419 14 13 20 25 20 733 20 396 0 734 -3 750 -8 17 -4 203 -4 415 0 212 4 679 8 1039 9 589 1 655 -1 663 -15 13 -23 156 -23 164 -1 8 19 97 21 113 2 14 -17 937 -33 957 -16 6 5 10 19 7 29 -5 19 1 20 160 20 100 0 168 -4 172 -10 3 -5 17 -10 29 -10 13 0 29 -7 36 -15 10 -12 37 -15 127 -15 92 0 115 3 119 15 5 13 50 15 318 15 300 0 312 -1 324 -20 12 -19 23 -20 317 -20 290 0 304 1 318 19 10 15 24 20 58 19 24 0 114 -1 199 -2 130 -1 160 -4 183 -18 32 -22 51 -22 80 -4 39 24 103 27 123 5 16 -18 28 -18 163 -13 80 4 153 10 162 15 17 9 314 11 389 3 25 -3 63 -5 85 -5 22 0 60 2 85 5 81 9 372 5 391 -4 30 -16 230 -13 248 4 14 12 126 15 721 18 669 3 708 2 760 -16 63 -21 74 -22 153 -4 57 12 57 12 57 70 0 58 0 58 -12000 58 -12000 0 -12000 0 -12000 -50z"/> <path d="M15015 16948 c-11 -6 -25 -19 -32 -28 -9 -13 -24 -15 -78 -10 -73 6 -77 4 -68 -29 5 -19 12 -22 47 -21 57 2 66 1 66 -9 0 -4 -36 -11 -81 -14 -69 -4 -86 -2 -115 15 -27 16 -37 18 -49 8 -18 -15 -9 -38 18 -42 28 -4 36 -45 11 -55 -11 -4 -23 1 -35 15 -23 29 -21 30 -145 -30 -94 -45 -118 -52 -171 -53 -43 -1 -68 -6 -81 -18 -10 -9 -26 -17 -34 -17 -9 0 -29 -7 -44 -15 -16 -8 -36 -15 -44 -15 -19 0 -70 -47 -70 -64 0 -27 -30 -27 -40 0 -10 25 -10 25 -102 19 -115 -8 -120 -10 -116 -37 4 -28 30 -34 71 -16 20 9 52 13 85 10 72 -6 63 -26 -14 -30 -35 -2 -66 -9 -76 -18 -9 -9 -36 -18 -60 -21 -24 -3 -56 -12 -71 -20 -26 -13 -31 -13 -48 3 -17 16 -20 15 -55 -16 -33 -29 -42 -32 -81 -26 -39 5 -45 3 -52 -17 -11 -27 -100 -121 -123 -130 -25 -9 -23 -43 3 -50 27 -7 19 -32 -10 -31 -29 1 -26 -44 4 -60 39 -22 47 -51 15 -59 -29 -8 -26 -37 4 -37 14 0 28 5 31 10 10 16 25 12 25 -8 0 -19 45 -72 60 -72 6 0 10 -7 10 -15 0 -9 8 -18 18 -21 49 -16 142 -69 142 -80 0 -8 8 -14 19 -14 28 0 49 -29 30 -41 -8 -5 -22 -9 -31 -9 -26 0 -22 -19 7 -30 14 -5 25 -16 25 -25 0 -9 12 -20 26 -25 28 -11 28 -33 0 -38 -11 -2 -19 4 -23 17 -8 29 -41 27 -53 -4 -7 -19 -17 -25 -41 -25 -27 0 -30 -2 -19 -15 7 -8 19 -15 26 -15 19 0 18 -6 -12 -45 -19 -26 -34 -35 -61 -37 -49 -4 -57 -28 -9 -28 45 0 54 -15 22 -36 -14 -9 -37 -40 -50 -69 -14 -29 -32 -55 -41 -59 -8 -3 -15 -12 -15 -21 0 -10 -10 -15 -29 -15 -25 0 -31 -5 -36 -31 -4 -18 -16 -35 -31 -41 -13 -6 -24 -19 -24 -29 0 -10 -9 -23 -20 -29 -11 -6 -20 -17 -20 -25 0 -8 -8 -20 -19 -27 -10 -7 -25 -27 -34 -45 -34 -66 -88 -104 -100 -70 -2 6 -8 9 -12 4 -5 -4 -3 -13 3 -19 18 -18 15 -43 -8 -63 -11 -10 -20 -28 -20 -39 0 -12 -9 -29 -20 -39 -11 -9 -20 -28 -20 -41 0 -16 -11 -32 -30 -46 -22 -15 -30 -30 -30 -51 0 -22 -5 -29 -20 -29 -12 0 -30 -16 -46 -40 -24 -36 -26 -43 -14 -65 15 -28 6 -45 -12 -27 -35 35 -78 2 -78 -60 0 -19 -7 -43 -15 -54 -14 -18 -16 -18 -45 16 -30 36 -31 40 -35 173 -1 32 -7 63 -13 69 -13 13 -15 9 -16 -47 -1 -40 -1 -40 -38 -38 -32 2 -38 -1 -38 -17 0 -18 5 -19 39 -14 42 7 54 -6 44 -45 -6 -25 -20 -27 -45 -4 -17 15 -20 15 -38 -5 -22 -24 -46 -20 -55 8 -4 12 -25 24 -59 34 -29 9 -59 23 -66 31 -16 19 -56 20 -67 1 -9 -15 -104 -17 -643 -13 -228 1 -311 5 -328 15 -12 7 -26 11 -30 9 -18 -11 -914 -30 -920 -20 -4 6 -39 14 -78 18 -78 7 -118 -4 -108 -30 5 -12 -2 -15 -31 -15 -29 0 -36 3 -31 15 14 39 -107 58 -228 37 -35 -6 -51 -30 -16 -25 24 4 164 -20 175 -29 20 -18 -18 -25 -116 -20 -93 4 -101 3 -120 -17 -24 -25 -75 -28 -100 -5 -15 14 -19 13 -38 -15 -17 -24 -31 -31 -69 -36 -26 -3 -63 -10 -82 -15 -19 -5 -47 -12 -62 -15 -15 -3 -35 -14 -45 -24 -10 -11 -29 -21 -43 -23 -16 -2 -26 -11 -30 -28 -5 -23 -11 -25 -60 -25 -50 0 -55 -2 -78 -35 -14 -21 -34 -37 -50 -40 -18 -3 -28 -12 -30 -27 -2 -12 -12 -25 -23 -28 -23 -8 -25 -23 -4 -31 26 -10 17 -27 -11 -20 -20 5 -31 1 -49 -19 -13 -14 -30 -25 -38 -25 -8 0 -21 -7 -28 -16 -11 -14 -11 -18 4 -29 22 -16 22 -19 -7 -49 -30 -33 -36 -33 -36 3 0 17 -4 32 -10 36 -18 11 -45 -48 -45 -99 0 -40 -4 -51 -17 -54 -11 -2 -18 3 -18 12 0 20 -49 33 -60 16 -13 -21 0 -40 27 -40 14 0 23 -3 21 -7 -3 -5 -13 -27 -23 -50 -10 -24 -22 -43 -26 -43 -5 0 -27 -17 -50 -39 -38 -35 -41 -42 -36 -74 6 -36 -20 -104 -49 -128 -10 -8 -14 -37 -14 -110 0 -59 -4 -99 -10 -99 -5 0 -10 14 -10 30 0 30 -23 51 -38 35 -4 -3 -8 -40 -8 -81 -1 -59 2 -79 17 -98 24 -31 25 -102 2 -128 -13 -15 -14 -22 -5 -41 13 -24 15 -80 6 -174 -4 -46 -1 -70 11 -96 9 -19 16 -57 16 -83 0 -166 2 -177 40 -222 20 -24 39 -53 42 -65 9 -36 32 -94 44 -108 6 -8 13 -23 15 -34 2 -11 16 -26 31 -33 15 -7 27 -19 27 -26 0 -8 6 -19 14 -26 8 -6 16 -23 18 -38 4 -34 37 -43 45 -12 7 25 29 21 26 -6 -1 -10 7 -35 18 -56 26 -51 24 -68 -5 -68 -32 0 -43 -18 -23 -37 17 -18 57 -2 57 22 0 20 4 19 49 -10 50 -31 54 -38 66 -110 12 -70 40 -90 51 -35 5 24 11 30 27 28 30 -5 45 -33 29 -58 -11 -18 -10 -20 17 -20 18 0 35 -8 43 -19 7 -10 32 -28 56 -40 24 -12 45 -28 48 -36 3 -8 14 -17 24 -20 10 -3 20 -16 22 -28 4 -31 62 -37 80 -8 7 12 21 21 30 21 24 0 23 -31 0 -37 -18 -4 -47 -62 -37 -72 3 -2 30 6 61 18 50 21 57 22 72 8 9 -9 29 -18 44 -22 19 -5 28 -14 30 -33 4 -32 55 -45 70 -18 10 18 35 21 57 7 12 -8 10 -12 -12 -22 -34 -15 -24 -33 15 -25 24 5 43 -2 88 -29 32 -19 63 -35 69 -35 6 0 18 -12 28 -27 9 -16 18 -30 20 -32 2 -2 12 4 22 13 28 25 55 17 61 -19 3 -20 12 -31 25 -33 64 -9 67 -11 60 -42 -6 -27 -4 -29 30 -36 40 -7 58 -31 44 -57 -16 -27 14 -21 71 14 59 36 79 31 48 -14 -41 -59 -69 -85 -87 -80 -9 2 -29 -6 -44 -18 -37 -28 -36 -95 1 -93 27 1 27 -4 1 -35 -19 -23 -20 -23 -34 -5 -14 18 -16 18 -46 -14 -20 -23 -28 -39 -24 -50 4 -10 9 -24 12 -32 5 -19 -78 -110 -101 -110 -18 0 -61 -25 -88 -52 -10 -10 -23 -18 -29 -18 -6 0 -39 -25 -72 -55 -65 -59 -65 -59 -152 -43 -13 2 -21 -4 -23 -17 -7 -34 -24 -46 -66 -45 -23 0 -165 0 -316 0 -151 0 -309 3 -350 6 -42 3 -92 2 -112 -4 -28 -8 -43 -7 -63 4 -37 19 -44 18 -57 -11 -8 -18 -8 -28 0 -38 7 -8 9 -17 5 -20 -13 -14 -24 -6 -34 23 -8 23 -19 31 -45 36 -19 3 -38 12 -42 19 -4 8 -19 17 -34 20 -37 9 -39 -21 -3 -35 32 -12 32 -27 -1 -42 -23 -11 -28 -9 -44 11 -20 27 -40 21 -40 -13 0 -15 -9 -27 -25 -34 -14 -6 -25 -18 -25 -26 0 -7 -7 -19 -15 -26 -32 -27 -76 -121 -70 -150 7 -33 -13 -53 -22 -21 -10 40 -28 15 -28 -38 0 -39 -5 -56 -17 -65 -10 -7 -18 -24 -18 -38 0 -13 -11 -35 -25 -48 -19 -18 -25 -34 -25 -66 0 -37 -3 -43 -22 -46 -33 -4 -39 -81 -9 -98 22 -11 28 -53 12 -79 -15 -23 -31 -2 -31 40 0 40 -7 48 -28 27 -18 -18 -15 -85 3 -92 22 -8 19 -53 -5 -66 -28 -15 -29 -180 0 -180 20 0 43 -23 33 -33 -3 -4 -15 -7 -25 -7 -16 0 -19 -6 -16 -32 4 -42 23 -46 36 -8 6 16 15 30 20 30 19 0 36 -33 34 -65 -2 -28 2 -36 27 -48 26 -13 32 -13 42 -1 16 20 37 17 44 -6 6 -20 35 -29 35 -10 0 15 42 50 62 50 22 0 24 -18 3 -26 -8 -4 -15 -15 -15 -25 0 -23 41 -26 59 -5 19 23 107 39 170 32 49 -6 732 -12 786 -7 38 4 84 -4 97 -17 16 -16 28 -15 47 2 21 18 133 37 146 25 16 -16 43 -10 50 11 8 24 12 24 112 5 91 -18 93 -18 93 -6 0 5 -13 11 -30 15 -38 7 -39 34 -2 42 46 9 100 39 115 62 4 6 26 12 48 12 36 0 39 -2 33 -24 -5 -19 -1 -24 21 -28 24 -5 39 3 95 50 96 80 95 80 125 58 18 -13 18 -16 -19 -56 -25 -28 -35 -45 -28 -52 13 -13 32 -2 32 18 0 24 48 17 65 -10 9 -13 25 -26 35 -29 26 -7 26 -27 0 -34 -30 -8 -19 -27 17 -31 18 -2 35 3 43 12 17 22 63 20 84 -3 10 -11 32 -21 50 -23 24 -2 32 -8 34 -26 3 -19 9 -23 30 -20 38 4 38 42 0 46 -27 3 -38 25 -18 37 5 3 39 1 76 -6 59 -10 67 -14 76 -39 16 -48 69 -44 88 6 10 25 37 31 68 15 22 -11 84 -2 79 12 -2 6 -14 14 -28 17 -46 11 -28 35 28 38 45 3 53 0 63 -19 11 -19 18 -21 66 -17 63 5 104 36 104 78 0 33 27 63 77 85 21 9 49 32 63 51 22 30 29 34 58 29 39 -7 56 18 26 40 -16 11 -17 16 -6 27 11 11 16 10 26 -4 19 -25 45 -22 52 6 3 14 18 29 35 37 17 6 36 24 43 38 8 14 24 35 35 45 34 31 43 9 46 -110 2 -96 4 -108 23 -123 15 -11 20 -23 16 -37 -4 -15 2 -25 20 -37 13 -9 27 -26 31 -37 3 -11 12 -20 20 -20 8 0 17 -9 20 -20 3 -11 13 -20 21 -20 8 0 20 -14 26 -30 10 -30 15 -33 91 -45 28 -5 39 -2 43 10 9 23 28 18 52 -15 27 -37 40 -38 67 -5 20 26 20 26 63 5 23 -11 59 -21 80 -21 20 0 81 -1 134 -4 55 -2 100 1 104 6 3 5 22 16 42 25 34 14 38 14 49 -2 7 -10 13 -21 13 -26 0 -16 30 -7 40 12 6 11 22 27 35 36 22 14 26 14 54 -7 34 -25 51 -22 71 15 11 22 12 31 2 46 -19 30 -15 39 24 55 20 8 38 15 39 15 8 0 -10 -57 -22 -68 -7 -8 -11 -18 -8 -23 11 -16 24 -10 27 14 3 19 11 23 56 27 59 6 82 -2 82 -30 0 -12 -11 -22 -34 -30 -33 -11 -46 -26 -46 -56 0 -24 38 -16 42 9 5 35 65 37 78 3 11 -31 30 -33 55 -6 22 24 51 26 63 4 7 -13 30 -17 113 -19 57 -2 120 -5 139 -7 20 -2 52 5 75 16 31 15 59 18 132 16 99 -2 175 -2 196 0 6 0 24 -2 39 -6 24 -6 27 -3 30 27 3 34 3 34 72 34 64 0 70 -2 85 -27 16 -26 17 -26 40 -9 23 18 23 18 -33 55 -59 39 -62 45 -46 77 16 29 38 23 61 -16 21 -35 42 -44 54 -25 3 6 11 10 17 10 6 0 5 -7 -4 -17 -22 -26 -12 -41 30 -49 55 -10 73 -22 70 -47 -2 -18 4 -24 34 -31 32 -8 42 -6 78 18 41 27 60 27 60 1 0 -23 40 -28 191 -23 122 3 143 6 154 22 12 15 22 17 64 11 27 -4 55 -13 62 -21 20 -24 47 -16 80 25 26 33 39 40 79 46 42 6 50 11 59 36 6 19 17 29 30 29 26 0 81 82 81 121 0 17 5 40 11 52 15 27 18 138 5 156 -6 8 -15 50 -19 95 -11 117 -11 1012 1 1070 7 37 6 60 -5 95 -11 33 -13 74 -9 149 5 103 5 103 -22 113 -25 9 -82 84 -82 107 0 6 -9 16 -20 22 -27 14 -9 54 19 45 15 -4 26 7 51 52 18 32 39 62 47 66 8 5 14 25 14 50 0 90 15 217 27 229 19 19 14 78 -11 129 -22 47 -26 116 -11 195 3 19 1 34 -5 38 -14 9 -15 103 -1 111 12 8 13 107 1 120 -5 6 -11 87 -15 181 -5 146 -4 173 9 184 17 14 22 253 6 279 -6 9 -5 21 2 33 9 14 9 23 -1 38 -6 11 -12 47 -12 80 0 33 6 69 12 80 10 16 10 24 0 40 -15 25 -17 231 -1 247 7 7 9 42 6 94 -2 46 -7 231 -10 410 -6 327 -6 327 -38 358 -17 17 -39 36 -50 41 -10 6 -19 17 -19 26 0 8 -16 31 -36 50 -35 36 -35 36 -128 26 -59 -7 -131 -7 -196 -2 -56 5 -110 6 -119 1 -19 -9 -166 -7 -198 3 -13 4 -23 14 -23 22 0 19 -16 18 -24 -2 -4 -12 -13 -14 -31 -10 -16 4 -41 -1 -67 -14 -49 -24 -48 -23 -48 -8 0 35 43 98 76 110 19 6 34 16 34 20 0 4 9 18 20 31 45 50 50 58 50 76 0 30 11 51 26 51 26 0 27 30 4 55 -32 34 -20 59 25 52 34 -6 65 11 65 34 0 5 8 9 18 9 9 0 29 7 44 14 25 13 29 13 41 -4 7 -10 26 -24 42 -32 38 -16 77 -57 90 -93 14 -39 27 -40 47 -5 25 44 48 39 48 -10 0 -29 -4 -40 -15 -40 -8 0 -15 -4 -15 -10 0 -13 13 -13 27 1 13 13 93 -4 128 -28 37 -25 82 -14 53 15 -8 8 -5 17 13 36 32 34 48 33 56 -4 8 -41 19 -46 28 -13 9 38 54 133 77 162 16 21 18 44 18 182 0 99 4 159 10 159 20 0 10 87 -15 131 -28 49 -31 98 -14 214 12 85 11 207 -2 220 -12 12 -12 248 0 261 5 5 12 79 15 164 3 85 9 180 12 211 5 51 4 57 -19 72 -23 15 -24 20 -19 86 4 68 3 72 -27 106 -17 20 -31 42 -31 51 0 8 -7 17 -15 20 -8 4 -15 16 -15 28 0 44 -57 66 -67 26 -5 -17 -11 -19 -42 -14 -20 4 -43 13 -52 20 -23 20 -78 18 -85 -3 -17 -55 -46 -65 -54 -19 -6 34 -17 40 -45 24z m286 -968 c0 -476 3 -901 8 -945 9 -77 3 -115 -19 -115 -9 0 -39 25 -108 91 -15 14 -55 43 -87 65 -33 21 -67 46 -76 54 -10 8 -34 26 -54 40 -20 14 -56 41 -80 60 -122 97 -116 95 -152 54 -18 -20 -33 -43 -33 -52 0 -8 -15 -33 -33 -56 -18 -23 -46 -61 -62 -86 -16 -25 -46 -65 -66 -90 -41 -52 -102 -138 -112 -160 -4 -8 -27 -42 -52 -75 -25 -33 -61 -85 -82 -115 -20 -30 -41 -59 -47 -65 -6 -5 -24 -30 -41 -55 -16 -25 -35 -52 -42 -60 -22 -25 -95 -124 -162 -219 -34 -50 -67 -94 -73 -97 -5 -3 -14 -16 -19 -27 -5 -12 -23 -40 -39 -62 -47 -62 -114 -156 -125 -174 -5 -9 -25 -35 -42 -58 -18 -22 -33 -45 -33 -50 0 -6 -9 -18 -20 -28 -10 -9 -41 -49 -67 -89 -26 -39 -53 -75 -58 -81 -6 -5 -24 -30 -40 -55 -16 -25 -35 -52 -42 -60 -16 -18 -89 -116 -121 -162 -12 -18 -39 -57 -60 -87 -20 -29 -51 -70 -67 -90 -17 -20 -38 -47 -48 -61 -9 -14 -34 -50 -54 -80 -20 -30 -51 -73 -68 -95 -16 -22 -34 -48 -40 -57 -10 -16 -37 -55 -163 -234 -31 -44 -95 -132 -142 -195 -47 -63 -89 -122 -95 -131 -26 -40 -53 -78 -100 -138 -28 -36 -64 -85 -80 -110 -17 -25 -34 -48 -38 -51 -9 -6 -48 -62 -134 -189 -32 -47 -81 -116 -110 -154 -29 -37 -53 -72 -53 -76 0 -5 -18 -31 -40 -59 -22 -28 -40 -53 -40 -57 0 -3 -17 -27 -37 -53 -21 -25 -44 -55 -51 -66 -13 -22 -44 -69 -64 -99 -7 -11 -20 -27 -28 -35 -8 -9 -28 -37 -44 -61 -17 -25 -35 -50 -40 -55 -12 -11 -42 -53 -81 -113 -14 -20 -32 -46 -41 -57 -14 -19 -99 -137 -157 -220 -16 -22 -44 -60 -63 -85 -30 -40 -65 -90 -178 -255 -91 -132 -188 -256 -261 -332 -74 -76 -206 -193 -219 -193 -3 0 -14 -7 -23 -16 -31 -28 -140 -93 -167 -100 -14 -3 -29 -10 -32 -15 -3 -5 -35 -23 -72 -40 -37 -17 -85 -39 -108 -50 -22 -10 -49 -19 -60 -19 -11 0 -25 -5 -31 -11 -12 -12 -127 -44 -231 -64 -40 -8 -82 -20 -95 -27 -17 -10 -180 -14 -719 -18 -539 -4 -700 -8 -710 -17 -18 -19 -46 -15 -58 8 -13 24 -7 56 20 114 11 22 24 59 30 82 6 23 15 45 20 48 6 3 10 16 10 28 0 12 8 38 19 57 10 19 21 53 25 75 4 22 12 45 18 52 5 7 16 36 23 65 7 29 25 85 40 123 15 39 31 90 37 115 6 25 15 51 20 58 6 6 13 26 17 44 6 31 6 31 546 32 476 1 544 3 570 17 17 9 51 19 76 22 26 4 62 13 80 21 64 26 84 36 99 45 8 5 42 22 75 39 64 31 98 57 180 137 56 55 175 200 175 213 0 5 8 19 18 30 9 12 27 36 40 54 13 18 46 65 74 103 28 39 79 113 114 165 35 52 84 120 108 152 25 31 51 69 60 85 8 15 25 39 38 53 13 14 41 51 63 83 22 33 54 78 70 101 17 24 39 56 50 72 10 16 40 56 65 89 44 56 79 104 165 230 19 28 53 75 75 105 22 30 66 93 97 140 32 47 80 114 108 150 27 36 72 97 98 135 103 150 145 208 173 238 5 7 27 37 47 67 59 89 103 150 126 174 12 12 21 27 21 33 0 6 3 13 8 15 7 3 31 37 117 164 22 33 46 67 53 75 39 46 102 134 102 143 0 5 11 21 24 35 42 45 136 174 136 187 0 7 6 17 13 21 6 4 25 28 42 53 16 25 52 75 80 112 27 37 61 83 75 103 24 35 33 47 83 110 13 17 44 59 68 95 24 36 64 91 89 124 25 32 50 66 55 74 10 16 34 51 101 149 19 28 41 57 49 63 8 7 15 17 15 22 0 5 24 42 54 81 29 40 70 97 90 127 21 30 41 57 44 60 4 3 20 25 37 50 16 25 53 74 81 110 28 36 58 79 67 95 8 17 29 48 46 70 126 165 172 228 257 353 31 45 61 85 68 90 7 4 27 31 46 60 18 28 37 52 42 52 31 0 -12 55 -62 78 -14 7 -34 17 -45 24 -22 14 -178 117 -204 134 -79 55 -170 109 -198 117 -68 21 -52 87 21 87 23 0 50 6 61 14 11 7 38 16 60 20 22 4 49 14 61 21 12 7 38 17 58 20 20 4 53 16 73 26 21 11 45 19 55 19 10 0 37 8 60 19 46 20 62 25 203 73 50 16 108 39 131 49 23 10 52 19 65 19 14 0 33 6 44 13 11 7 56 26 100 41 44 16 89 34 100 41 11 7 36 16 55 20 19 4 54 16 77 26 23 11 48 19 55 19 8 0 51 15 96 34 46 19 97 38 115 42 18 4 48 15 67 25 19 11 40 19 46 19 7 0 38 14 70 30 32 17 64 29 72 28 12 -3 14 -131 13 -868z m-2003 -1026 c-5 -28 -28 -29 -28 -1 0 13 3 27 7 31 10 10 25 -10 21 -30z m1760 9 c-4 -22 -48 -31 -48 -10 0 19 10 27 32 27 13 0 18 -6 16 -17z m160 -75 c-5 -32 -28 -35 -28 -4 0 17 5 26 16 26 10 0 14 -7 12 -22z m-589 -30 c-12 -43 -33 -55 -37 -22 -5 36 4 54 27 54 17 0 19 -4 10 -32z m-39 -94 c0 -37 -18 -45 -40 -19 -10 12 -9 20 4 40 21 32 36 24 36 -21z m690 -234 c0 -5 -16 -10 -35 -10 -19 0 -35 5 -35 10 0 6 16 10 35 10 19 0 35 -4 35 -10z m-2556 -96 c22 -9 20 -41 -4 -54 -11 -6 -56 -57 -99 -113 -44 -56 -87 -110 -95 -119 -9 -10 -16 -22 -16 -26 0 -8 -70 -104 -103 -142 -7 -8 -26 -35 -42 -60 -17 -25 -33 -47 -36 -50 -9 -7 -157 -227 -195 -289 -33 -54 -33 -54 -872 -52 -735 2 -856 0 -978 -15 -76 -9 -148 -22 -159 -29 -11 -7 -35 -16 -53 -19 -17 -4 -34 -12 -38 -17 -3 -5 -20 -15 -37 -23 -52 -21 -133 -112 -174 -195 -36 -74 -37 -79 -38 -186 0 -85 4 -116 16 -135 9 -14 19 -37 23 -52 21 -90 207 -254 345 -304 25 -10 51 -23 57 -31 6 -7 16 -13 22 -13 6 0 45 -18 87 -40 42 -22 82 -40 89 -40 7 0 24 -8 37 -18 13 -11 36 -22 50 -25 15 -4 55 -23 89 -42 34 -19 68 -35 75 -35 7 0 23 -8 36 -19 13 -10 35 -22 48 -26 13 -4 45 -20 70 -36 25 -15 79 -45 120 -66 116 -60 121 -63 121 -78 0 -8 -6 -18 -14 -22 -17 -10 -129 -149 -181 -227 -22 -32 -50 -68 -62 -80 -13 -11 -23 -26 -23 -32 0 -6 -9 -19 -20 -29 -11 -10 -20 -24 -20 -32 0 -7 -8 -21 -17 -31 -10 -10 -31 -38 -47 -62 -17 -25 -35 -49 -40 -55 -17 -16 -66 -90 -66 -100 0 -18 -34 -45 -56 -45 -12 0 -35 10 -51 23 -50 40 -114 77 -283 162 -41 20 -82 41 -90 45 -8 5 -76 39 -150 75 -74 37 -157 79 -185 93 -27 14 -70 37 -95 49 -48 25 -56 30 -140 82 -164 102 -376 319 -435 444 -21 44 -41 77 -54 90 -6 6 -11 18 -11 26 0 9 -12 39 -25 66 -14 28 -25 60 -25 73 0 12 -7 33 -15 46 -9 13 -20 62 -25 109 -6 47 -15 98 -20 112 -13 34 -13 329 0 374 5 18 14 67 20 109 6 42 17 86 25 99 8 12 15 32 15 43 0 34 76 197 126 271 18 25 39 59 47 75 9 16 30 45 49 64 18 20 49 54 69 76 94 106 369 294 430 294 9 0 22 7 29 15 7 8 28 17 49 21 20 4 42 11 49 17 14 11 125 44 197 59 28 5 75 17 105 26 50 15 174 18 1290 22 679 3 1247 7 1262 8 14 1 33 -1 42 -4z m2577 -1465 c-1 -804 -2 -1462 -3 -1463 -2 -1 -581 1 -1288 4 -1442 6 -1640 1 -1640 -36 0 -8 -4 -14 -10 -14 -5 0 -10 7 -10 15 0 8 4 15 9 15 4 0 11 16 14 35 4 26 21 50 56 85 43 43 64 69 116 148 6 9 33 46 60 83 28 37 61 84 75 104 14 20 35 49 48 65 12 15 22 32 22 37 0 5 14 22 31 39 17 16 38 43 46 59 9 17 38 58 64 92 27 35 59 82 70 105 38 79 -17 74 754 68 455 -3 693 -2 698 5 5 5 6 78 3 160 -11 274 -8 1847 2 1854 6 3 206 5 447 4 436 -2 436 -2 436 -1464z m-1081 1352 c0 -16 -48 -67 -55 -59 -4 3 3 20 16 37 23 31 39 40 39 22z m53 -107 c8 -8 -17 -56 -38 -74 -15 -12 -13 -16 12 -37 28 -23 28 -23 3 -44 -22 -19 -25 -28 -22 -78 2 -31 9 -62 15 -70 9 -10 12 -178 10 -629 -1 -721 11 -655 -122 -657 -51 -1 -86 -6 -96 -15 -26 -22 -106 -30 -294 -31 -160 0 -175 1 -195 20 -29 27 -257 36 -278 10 -19 -22 -75 -38 -136 -37 -48 0 -54 3 -63 26 -6 15 -15 30 -22 34 -8 5 -7 12 5 25 9 10 21 31 27 46 9 24 14 26 31 17 26 -14 40 -5 40 24 0 15 9 27 25 34 21 10 25 18 23 45 -2 41 7 57 34 57 30 0 58 28 58 59 0 13 11 41 25 62 18 25 27 52 28 85 2 37 6 50 20 52 12 3 17 -3 17 -20 1 -13 7 -34 14 -47 14 -25 14 -25 30 7 23 45 21 62 -10 62 -22 0 -25 4 -22 28 3 23 7 27 34 26 28 -2 36 6 75 63 41 60 59 90 81 135 4 10 8 28 8 41 0 15 15 38 39 60 22 20 42 46 46 57 3 11 10 20 15 20 4 0 13 14 19 30 7 22 16 30 35 30 16 0 27 7 31 19 9 31 46 72 71 81 28 11 35 60 9 60 -8 0 -15 7 -15 15 0 8 7 15 15 15 8 0 15 -7 15 -15 0 -23 18 -18 60 15 46 36 50 37 50 5 0 -18 5 -25 20 -25 15 0 20 7 20 25 0 14 -8 29 -20 35 -26 14 -26 46 1 53 19 5 21 11 17 56 -4 44 -3 51 13 51 10 0 21 5 24 11 4 5 18 14 31 19 27 11 31 36 9 60 -14 15 -13 20 6 43 11 15 24 27 29 27 11 0 31 -52 28 -75 -6 -43 16 -23 33 30 9 30 23 62 29 70 13 15 42 20 53 9z m-293 -263 c0 -18 -34 -51 -52 -51 -17 0 -7 39 15 53 30 21 37 21 37 -2z m-2025 -556 c0 -5 -10 -11 -22 -13 -16 -2 -23 2 -23 13 0 11 7 15 23 13 12 -2 22 -7 22 -13z m-523 -35 c128 0 262 -4 298 -9 58 -8 66 -7 79 10 25 35 71 17 71 -28 0 -20 5 -23 35 -23 19 0 35 5 35 10 0 6 12 15 28 22 15 6 41 17 59 24 41 18 63 18 63 -1 0 -9 -12 -18 -29 -21 -20 -4 -33 -15 -41 -35 -10 -23 -19 -29 -44 -29 -40 0 -56 -16 -56 -54 0 -42 -31 -150 -46 -158 -6 -4 -14 -19 -18 -32 -3 -13 -15 -26 -25 -29 -12 -3 -23 -17 -27 -33 -3 -16 -12 -34 -19 -39 -7 -6 -14 -19 -16 -30 -2 -11 -15 -25 -29 -32 -13 -6 -38 -26 -54 -43 -17 -17 -40 -37 -51 -45 -20 -15 -20 -15 -1 -30 10 -8 24 -16 30 -19 6 -3 -3 -17 -21 -34 -21 -18 -33 -38 -33 -54 0 -26 -22 -53 -33 -41 -4 3 -7 22 -7 40 0 28 -4 34 -17 31 -20 -4 -23 -70 -4 -76 38 -13 -10 -76 -65 -87 -19 -3 -34 -10 -34 -15 0 -5 -12 -26 -26 -47 -21 -31 -24 -45 -19 -79 9 -63 -42 -100 -60 -43 -14 42 -36 14 -61 -73 -9 -33 -21 -58 -29 -58 -7 0 -15 -7 -19 -15 -3 -9 -12 -12 -21 -9 -9 4 -21 -1 -29 -11 -15 -21 -50 -16 -54 8 -3 12 4 20 17 24 29 7 30 63 2 63 -11 0 -23 -9 -26 -20 -7 -22 -20 -26 -30 -10 -3 6 -17 7 -31 4 -33 -9 -57 12 -43 37 23 45 -24 87 -83 74 -15 -4 -42 -4 -58 0 -30 7 -31 8 -24 51 7 46 -14 70 -39 45 -18 -18 -35 -13 -39 12 -2 18 -10 23 -43 25 -28 2 -46 11 -61 29 -15 19 -31 26 -61 28 -24 1 -53 11 -69 24 -14 11 -31 21 -37 21 -5 0 -27 16 -48 35 -27 24 -49 35 -72 36 -86 1 -215 49 -133 49 31 0 77 20 70 31 -3 5 -27 11 -53 15 -38 5 -51 11 -60 30 -12 27 -26 31 -35 9 -6 -18 2 -45 15 -45 5 0 9 -5 9 -11 0 -6 -17 -9 -42 -7 -39 3 -43 6 -46 31 -2 15 4 34 13 43 20 21 2 36 -31 28 -27 -7 -134 96 -134 128 0 11 -5 28 -11 40 -9 16 -7 24 9 41 32 36 32 43 7 77 -32 44 -32 68 1 76 14 4 46 24 71 45 24 22 48 39 53 39 5 0 19 18 30 41 30 58 54 50 58 -19 2 -37 7 -52 17 -52 14 0 21 19 27 70 4 37 61 42 511 46 216 2 395 8 405 13 10 6 23 6 34 0 9 -5 122 -9 250 -9z m628 -107 c0 -3 -6 -14 -14 -22 -7 -9 -18 -29 -23 -46 -6 -19 -16 -30 -28 -30 -32 0 -28 22 12 64 36 38 53 49 53 34z m953 -650 c11 -17 11 -66 1 -70 -8 -3 -44 55 -44 72 0 8 38 6 43 -2z m-755 -1119 c-4 -32 -17 -39 -42 -21 -17 13 -17 14 6 40 26 30 41 22 36 -19z m-68 -69 c9 -11 10 -19 3 -26 -14 -14 -43 0 -43 22 0 23 23 25 40 4z m1026 -75 c6 -19 16 -36 23 -38 25 -8 9 -19 -31 -21 -24 0 -63 -2 -88 -4 -40 -2 -45 0 -48 21 -3 22 -1 23 27 17 28 -6 32 -3 48 30 22 47 53 45 69 -5z m2060 29 c3 -6 2 -15 -3 -20 -13 -13 -43 -1 -43 17 0 16 36 19 46 3z m-898 -61 c-5 -32 -28 -35 -28 -4 0 17 5 26 16 26 10 0 14 -7 12 -22z m-2274 -4 c8 -20 -1 -34 -20 -34 -8 0 -14 8 -14 18 0 33 23 44 34 16z m-41 -50 c9 -10 -4 -34 -19 -34 -8 0 -14 9 -14 20 0 19 19 27 33 14z m247 -15 c104 -11 552 -10 625 3 56 9 61 8 78 -13 10 -12 15 -29 12 -38 -8 -20 -7 -1642 1 -1692 4 -24 2 -39 -6 -44 -7 -4 -186 -9 -399 -10 -212 -1 -405 -5 -428 -10 -33 -5 -43 -4 -44 6 -1 8 -1 153 1 323 2 308 2 308 36 376 18 38 37 88 40 112 4 24 13 54 20 68 35 71 35 610 -1 679 -7 15 -17 44 -21 66 -4 22 -18 60 -31 84 -26 49 -28 63 -12 93 8 15 16 18 32 13 12 -4 56 -11 97 -16z m1037 10 c16 -16 736 -14 762 3 15 9 23 10 32 1 8 -8 11 -226 10 -830 -2 -556 1 -841 9 -887 10 -63 9 -71 -8 -88 -16 -17 -24 -18 -63 -8 -48 12 -708 9 -744 -3 -47 -16 -45 -43 -45 900 0 489 2 897 6 906 7 19 25 22 41 6z m1463 -15 c152 -2 309 1 368 8 68 7 107 7 113 1 10 -10 15 -1781 4 -1791 -2 -3 -178 -4 -389 -3 -293 2 -389 -1 -404 -10 -17 -10 -25 -10 -47 5 -25 16 -27 22 -21 59 8 48 8 1636 0 1648 -11 18 -7 81 7 90 8 6 34 7 59 3 25 -4 164 -8 310 -10z m-2782 -56 c16 -16 15 -28 -2 -28 -8 0 -24 -12 -35 -26 -23 -29 -36 -26 -44 11 -8 45 49 75 81 43z m22 -158 c0 -41 0 -41 -35 -13 -45 36 -45 53 0 53 34 0 35 -1 35 -40z m-57 -105 c24 -110 4 -552 -27 -600 -7 -11 -16 -39 -20 -63 -3 -24 -24 -81 -46 -126 -22 -46 -40 -86 -40 -89 0 -21 -144 -213 -203 -271 -72 -72 -231 -186 -259 -186 -8 0 -18 -4 -24 -10 -12 -12 -109 -46 -187 -66 -32 -8 -68 -19 -79 -25 -11 -6 -68 -15 -125 -20 -58 -5 -137 -16 -177 -24 -110 -23 -176 -19 -176 11 0 8 4 14 8 14 5 0 17 8 28 18 10 9 63 39 116 66 54 26 113 61 130 77 18 16 36 29 41 29 14 0 211 191 252 244 11 15 33 41 49 59 15 18 35 43 44 57 9 14 40 55 69 91 29 36 53 71 53 78 0 6 8 19 18 29 9 9 39 50 65 89 27 40 55 77 63 84 8 6 14 17 14 24 0 8 11 26 24 42 13 16 44 58 68 94 24 35 76 108 116 161 39 53 72 100 72 106 0 5 8 17 19 26 10 9 22 31 25 49 7 37 44 79 65 75 9 -2 19 -21 24 -43z m107 -9 c0 -14 -4 -27 -9 -31 -12 -7 -25 31 -16 45 11 18 25 10 25 -14z m-3666 -1004 c7 -11 -16 -54 -31 -60 -9 -2 -13 8 -13 32 0 29 4 36 19 36 11 0 22 -4 25 -8z m2150 -347 c3 -8 17 -15 31 -15 30 0 33 -16 5 -25 -20 -6 -69 28 -70 48 0 13 28 7 34 -8z m2606 -69 c0 -14 -29 -31 -38 -22 -2 3 -2 12 1 21 8 19 37 20 37 1z m-1727 -70 c8 -21 -2 -26 -53 -26 -52 0 -65 7 -49 27 15 18 95 17 102 -1z"/> <path d="M15077 15653 c-11 -11 -8 -183 3 -183 6 0 10 38 10 95 0 95 -1 101 -13 88z"/> <path d="M14035 15440 c-9 -28 11 -52 25 -30 6 8 9 21 7 29 -4 23 -25 24 -32 1z"/> <path d="M13954 15369 c-3 -6 -2 -15 4 -21 13 -13 32 -2 32 18 0 16 -26 19 -36 3z"/> <path d="M14464 15339 c-9 -15 11 -33 30 -26 9 4 13 13 10 22 -7 17 -30 20 -40 4z"/> <path d="M14380 15163 c0 -10 5 -25 10 -33 9 -13 11 -13 20 0 14 21 8 44 -13 48 -11 2 -17 -3 -17 -15z"/> <path d="M14127 15014 c-14 -14 -6 -24 19 -24 16 0 24 5 22 13 -5 14 -31 21 -41 11z"/> <path d="M14144 14746 c-7 -19 3 -36 22 -36 10 0 14 8 12 22 -4 26 -26 36 -34 14z"/> <path d="M13320 14448 c0 -7 11 -26 24 -43 21 -26 25 -28 31 -13 5 12 -1 27 -16 43 -27 27 -39 31 -39 13z"/> <path d="M13420 13876 c0 -29 19 -44 31 -25 13 20 6 43 -14 47 -12 3 -17 -3 -17 -22z"/> <path d="M12760 13655 c0 -17 5 -25 13 -22 6 2 12 12 12 22 0 10 -6 20 -12 23 -8 2 -13 -6 -13 -23z"/> <path d="M12866 13044 c-9 -24 12 -44 24 -24 5 8 8 19 7 24 -6 17 -24 17 -31 0z"/> <path d="M12065 12499 c-9 -27 14 -44 33 -25 15 15 6 46 -13 46 -8 0 -17 -10 -20 -21z"/> <path d="M11857 11816 c-7 -18 1 -26 25 -26 11 0 18 7 18 20 0 23 -35 28 -43 6z"/> <path d="M11832 11603 c2 -16 10 -29 20 -31 15 -3 15 1 5 27 -14 38 -29 40 -25 4z"/> <path d="M11640 11465 c-6 -8 -9 -19 -5 -25 9 -14 45 6 45 25 0 19 -24 19 -40 0z"/> <path d="M11154 11386 c-9 -22 2 -46 21 -46 12 0 15 8 13 27 -3 30 -25 42 -34 19z"/> <path d="M11104 11296 c-11 -28 0 -61 21 -61 27 0 30 68 2 73 -9 2 -20 -3 -23 -12z"/> <path d="M10746 10894 c-8 -20 1 -34 20 -34 8 0 14 10 14 25 0 28 -24 34 -34 9z"/> <path d="M10907 10535 c-8 -20 1 -43 24 -55 23 -13 30 -1 20 36 -8 32 -35 44 -44 19z"/> <path d="M10610 10205 c0 -12 8 -16 33 -13 17 2 32 8 32 13 0 6 -15 11 -32 13 -25 3 -33 -1 -33 -13z"/> <path d="M10226 9844 c-9 -22 11 -44 41 -44 24 0 24 0 1 30 -25 34 -33 37 -42 14z"/> <path d="M10150 14120 c20 -13 70 -13 70 0 0 6 -19 10 -42 10 -32 0 -39 -3 -28 -10z"/> <path d="M12197 14058 c-2 -7 -1 -21 2 -31 6 -17 8 -17 20 -3 14 16 9 46 -8 46 -5 0 -11 -6 -14 -12z"/> <path d="M9457 13913 c-17 -16 -6 -43 16 -43 31 0 38 9 26 31 -10 19 -30 25 -42 12z"/> <path d="M9674 13417 c-6 -17 2 -37 16 -37 15 0 19 29 5 40 -12 10 -16 9 -21 -3z"/> <path d="M9196 13411 c-8 -13 5 -71 15 -71 5 0 9 18 9 40 0 37 -11 52 -24 31z"/> <path d="M9586 12785 c-8 -21 1 -35 20 -35 10 0 14 8 12 22 -4 27 -23 34 -32 13z"/> <path d="M9150 12755 c0 -17 5 -25 13 -22 6 2 12 12 12 22 0 10 -6 20 -12 23 -8 2 -13 -6 -13 -23z"/> <path d="M9687 12623 c-14 -26 -16 -63 -4 -63 14 0 47 31 47 43 0 10 -38 28 -43 20z"/> <path d="M10297 12214 c-13 -13 5 -24 39 -24 24 0 34 4 32 13 -5 13 -60 22 -71 11z"/> <path d="M9867 12144 c-16 -16 -6 -35 16 -32 12 2 22 10 22 18 0 16 -26 25 -38 14z"/> <path d="M9746 12011 c-9 -15 23 -36 36 -23 5 5 7 15 4 21 -9 13 -33 14 -40 2z"/> <path d="M10334 11729 c-7 -11 12 -29 31 -29 19 0 38 18 31 29 -4 6 -18 11 -31 11 -13 0 -27 -5 -31 -11z"/> <path d="M14510 12260 c-6 -12 -10 -38 -8 -58 4 -51 31 -50 39 2 11 66 -8 99 -31 56z"/> <path d="M14634 12256 c-6 -26 1 -46 17 -46 12 0 12 57 -1 65 -5 3 -12 -5 -16 -19z"/> <path d="M13002 12044 c2 -11 11 -20 22 -22 13 -3 17 1 14 14 -2 11 -11 20 -22 22 -13 3 -17 -1 -14 -14z"/> <path d="M13662 13473 c-6 -20 -9 -39 -6 -42 12 -12 39 19 42 48 5 45 -22 41 -36 -6z"/> <path d="M13397 12878 c-7 -23 -1 -38 14 -38 5 0 9 14 9 30 0 35 -15 40 -23 8z"/> <path d="M13280 12811 c0 -17 18 -31 41 -31 17 0 9 29 -10 40 -27 14 -31 13 -31 -9z"/> <path d="M10025 13130 c-4 -7 -3 -16 3 -22 13 -13 54 0 49 15 -5 16 -43 21 -52 7z"/> <path d="M11550 12771 c0 -11 4 -22 9 -25 12 -8 34 21 26 34 -11 17 -35 11 -35 -9z"/> <path d="M11514 12725 c-3 -8 -3 -19 1 -25 11 -18 25 -11 25 15 0 27 -17 34 -26 10z"/> <path d="M11070 12444 c0 -11 8 -14 27 -12 39 4 42 28 4 28 -21 0 -31 -5 -31 -16z"/> <path d="M11350 12420 c0 -20 5 -30 15 -30 10 0 15 10 15 30 0 20 -5 30 -15 30 -10 0 -15 -10 -15 -30z"/> <path d="M11173 12378 c-33 -16 -32 -68 1 -68 28 0 42 14 51 53 8 30 -10 35 -52 15z"/> <path d="M11648 10129 c-19 -10 -25 -39 -9 -39 15 0 42 31 36 41 -7 11 -6 11 -27 -2z"/> <path d="M14763 16943 c-27 -10 -11 -23 29 -23 25 0 38 4 33 9 -14 12 -48 20 -62 14z"/> <path d="M13108 14925 c-8 -18 -8 -29 -1 -36 16 -16 33 -2 33 26 0 34 -18 40 -32 10z"/> <path d="M12902 14697 c-16 -19 11 -58 28 -41 14 14 10 46 -6 51 -6 2 -16 -2 -22 -10z"/> <path d="M12673 14689 c-6 -6 -37 -16 -69 -22 -45 -9 -60 -17 -62 -31 -6 -30 116 -15 140 17 27 35 20 65 -9 36z"/> <path d="M15172 14688 c3 -7 19 -14 37 -16 24 -3 32 0 29 10 -3 7 -19 14 -37 16 -24 3 -32 0 -29 -10z"/> <path d="M15065 14645 c21 -17 70 -17 70 0 0 6 -20 11 -45 13 -42 2 -44 1 -25 -13z"/> <path d="M9906 14575 c-6 -17 34 -31 59 -21 22 8 18 23 -7 30 -35 9 -45 7 -52 -9z"/> <path d="M8707 13173 c-5 -45 4 -73 24 -73 5 0 9 27 9 60 0 76 -24 86 -33 13z"/> <path d="M8680 12858 c0 -32 3 -39 10 -28 13 20 13 70 0 70 -5 0 -10 -19 -10 -42z"/> <path d="M10277 11124 c-11 -11 -8 -72 4 -79 16 -10 60 36 57 60 -3 20 -46 34 -61 19z"/> <path d="M10227 10883 c-16 -16 -7 -63 12 -63 23 0 31 18 20 48 -8 22 -20 28 -32 15z"/> <path d="M8307 10223 c-10 -9 -8 -46 3 -63 7 -11 11 -9 19 13 15 38 -1 72 -22 50z"/> <path d="M8390 10175 c0 -50 -2 -56 -25 -65 -29 -11 -32 -32 -9 -51 17 -14 34 1 34 30 0 8 6 19 14 25 23 17 25 110 4 114 -16 3 -18 -5 -18 -53z"/> <path d="M10237 9403 c-4 -3 -7 -17 -7 -30 0 -35 34 -26 38 10 3 26 -14 37 -31 20z"/> <path d="M10542 9368 c3 -7 15 -15 27 -16 16 -3 22 1 19 10 -3 7 -15 15 -27 16 -16 3 -22 -1 -19 -10z"/> <path d="M10415 9350 c-9 -15 4 -30 27 -30 14 0 18 5 14 16 -3 9 -6 18 -6 20 0 8 -29 4 -35 -6z"/> <path d="M14390 9281 c0 -15 6 -21 21 -21 25 0 22 33 -4 38 -12 2 -17 -3 -17 -17z"/> <path d="M15270 9285 c0 -16 42 -30 65 -21 33 12 16 36 -25 36 -29 0 -40 -4 -40 -15z"/> <path d="M12350 8225 c-15 -18 -16 -41 -6 -306 6 -161 5 -219 -4 -224 -13 -8 -53 31 -91 90 -45 70 -78 119 -101 149 -13 17 -39 51 -58 76 -46 62 -160 193 -175 202 -6 4 -37 8 -68 9 -83 3 -94 -10 -79 -98 15 -89 9 -645 -8 -688 -16 -43 3 -52 100 -51 98 2 102 6 94 101 -2 39 -7 115 -9 170 -2 55 -7 132 -11 170 -5 59 -4 73 10 84 21 18 23 16 105 -102 34 -49 72 -103 84 -120 12 -18 48 -62 79 -99 32 -36 58 -70 58 -75 1 -4 24 -33 53 -64 49 -54 55 -57 110 -62 73 -7 104 15 92 67 -4 17 -9 195 -10 395 -2 409 0 397 -72 381 -21 -5 -44 -5 -54 1 -23 12 -24 12 -39 -6z"/> <path d="M7695 8196 c-53 -25 -82 -48 -116 -89 -44 -53 -45 -58 -47 -126 -2 -46 3 -81 12 -99 26 -50 137 -138 162 -128 22 8 244 -53 278 -77 56 -38 59 -60 19 -104 -38 -41 -148 -63 -221 -44 -26 7 -58 15 -72 18 -14 3 -35 15 -47 26 -28 25 -101 30 -113 7 -5 -8 -14 -35 -21 -59 -12 -41 -12 -45 10 -62 13 -10 42 -24 64 -31 23 -6 49 -18 59 -25 12 -11 56 -15 181 -16 154 -2 167 -1 194 19 16 12 48 31 71 43 51 26 77 73 87 157 8 71 -6 112 -53 160 -34 34 -59 45 -222 104 -19 7 -66 18 -105 26 -85 17 -121 48 -111 98 10 48 35 66 107 76 85 12 177 3 211 -21 68 -48 108 -31 123 54 9 46 -12 82 -52 90 -15 3 -41 11 -58 18 -16 6 -84 13 -150 15 -119 4 -121 4 -190 -30z"/> <path d="M8770 8221 c-47 -4 -188 -5 -313 -4 -175 2 -229 0 -232 -10 -3 -6 -1 -41 3 -77 7 -65 7 -65 142 -65 135 0 135 0 134 -45 -5 -297 -5 -610 0 -619 4 -7 38 -11 85 -11 98 0 110 10 93 78 -8 30 -12 138 -13 292 0 135 -1 259 -2 275 -2 30 -2 30 132 31 101 1 135 5 142 15 8 12 2 127 -6 137 -7 8 -85 9 -165 3z"/> <path d="M9044 8218 c-11 -17 -5 -525 7 -554 5 -14 9 -35 9 -48 0 -48 73 -139 151 -186 74 -45 74 -45 214 -44 125 0 144 3 182 23 70 37 135 122 166 216 5 16 11 138 13 270 2 132 4 257 5 278 3 48 2 48 -77 53 -112 6 -105 25 -103 -284 2 -293 -2 -317 -58 -367 -42 -37 -86 -48 -159 -40 -75 8 -109 31 -145 98 -20 38 -23 58 -26 222 -3 99 0 216 5 260 13 110 11 112 -92 114 -56 0 -88 -3 -92 -11z"/> <path d="M9990 8217 c-1 -6 -1 -196 -1 -422 -1 -410 -1 -410 23 -408 12 1 117 3 233 3 133 1 214 5 222 12 7 6 34 15 60 19 25 5 54 15 62 23 9 8 28 17 43 21 28 7 99 73 123 115 50 86 59 117 63 206 3 70 0 99 -12 122 -9 17 -16 41 -16 52 0 44 -115 163 -198 205 -86 44 -117 49 -307 51 -99 1 -206 5 -237 8 -42 4 -58 2 -58 -7z m436 -153 c18 -2 37 -11 44 -19 7 -8 20 -15 29 -15 21 0 91 -63 91 -81 0 -7 8 -21 18 -32 14 -16 17 -38 17 -123 -1 -103 -1 -103 -41 -151 -69 -81 -115 -100 -263 -105 -69 -3 -133 -1 -141 3 -13 6 -15 40 -12 226 3 182 1 223 -12 247 -20 36 -21 33 10 49 26 13 177 14 260 1z"/> <path d="M11509 8225 c-3 -3 -123 -5 -267 -6 -144 0 -263 -4 -263 -7 -1 -4 -3 -167 -4 -362 -2 -204 -7 -374 -13 -400 -6 -26 -7 -49 -2 -54 9 -9 637 -9 652 0 4 3 8 36 8 74 0 76 -18 99 -64 85 -11 -3 -107 -9 -213 -12 -225 -6 -216 -11 -206 106 9 109 -1 104 208 93 206 -10 205 -11 205 68 0 56 -22 92 -53 85 -44 -10 -341 -25 -348 -17 -3 4 -9 46 -12 94 -5 76 -4 89 11 96 9 5 109 4 221 0 245 -10 237 -14 224 88 -8 69 -8 69 -43 72 -20 2 -38 0 -41 -3z"/> <path d="M13170 8221 c-74 -4 -220 -6 -324 -4 -127 2 -194 -1 -203 -8 -18 -16 -18 -123 1 -138 14 -12 113 -9 213 5 46 7 68 -15 59 -58 -8 -37 -15 -613 -8 -625 5 -7 39 -8 97 -4 102 7 93 -7 81 136 -8 101 -13 524 -5 536 5 8 47 10 135 8 129 -4 129 -4 129 76 0 93 20 85 -175 76z"/> <path d="M13826 8215 c-14 -15 -16 -27 -10 -69 4 -28 7 -210 7 -403 -1 -194 2 -353 6 -354 75 -9 163 -4 170 10 15 31 -1 242 -24 318 -9 29 11 32 230 30 180 -2 180 -2 177 -156 -5 -213 -10 -201 92 -201 57 0 87 4 95 13 7 9 8 48 3 123 -4 60 -5 237 -2 394 3 157 2 289 -3 295 -10 12 -145 14 -170 2 -16 -7 -17 -21 -11 -171 6 -135 5 -164 -7 -168 -8 -2 -96 -2 -196 1 -154 5 -185 9 -200 23 -13 14 -15 22 -6 40 14 27 27 264 15 272 -4 2 -39 7 -78 11 -60 6 -73 5 -88 -10z"/> <path d="M14783 8218 c-17 -22 1 -551 22 -622 22 -76 63 -127 140 -174 60 -37 60 -37 185 -37 189 1 284 46 345 165 33 65 35 91 40 389 6 314 13 294 -101 283 -69 -7 -69 -7 -72 -278 -2 -226 -5 -274 -17 -284 -8 -7 -15 -23 -15 -35 0 -35 -70 -82 -135 -90 -95 -12 -168 28 -206 113 -20 44 -20 61 -17 304 2 141 0 260 -5 264 -14 14 -153 16 -164 2z"/> <path d="M15721 8216 c-9 -11 -8 -206 3 -556 3 -74 0 -156 -5 -182 -7 -33 -7 -53 1 -68 11 -21 15 -21 283 -18 256 3 275 5 318 25 103 50 150 116 148 210 -1 70 -39 140 -79 149 -65 14 -77 50 -32 98 70 75 79 124 38 204 -50 96 -128 131 -308 138 -309 11 -358 11 -367 0z m480 -158 c40 -26 54 -68 35 -111 -22 -54 -62 -70 -192 -75 -106 -4 -112 -3 -133 19 -15 17 -20 31 -16 50 4 16 -1 41 -12 64 -17 36 -17 37 3 54 30 24 278 24 315 -1z m26 -328 c34 -12 53 -53 53 -112 0 -31 -50 -78 -83 -78 -88 -2 -235 -11 -250 -16 -41 -13 -57 22 -56 120 1 50 3 94 6 98 7 12 294 1 330 -12z"/> <path d="M16554 7776 c-8 -21 3 -49 16 -41 5 3 10 15 10 25 0 25 -18 36 -26 16z"/> <path d="M7344 7489 c-3 -6 -2 -15 4 -21 13 -13 32 -2 32 18 0 16 -26 19 -36 3z"/> </g> </svg>